<svg xmlns="http://www.w3.org/2000/svg" viewBox="0 0 1762 269" role="img" aria-label="Johnson &amp; Johnson"><path fill="#EB1700" fill-rule="evenodd" d="M10.4 268.0C7.0 266.6 3.1 261.2 1.4 255.3C-3.2 239.5 5.2 223.8 28.0 205.5C43.8 192.8 56.3 185.1 80.5 172.8L100.6 162.6L115.1 141.6C132.3 116.4 167.9 66.5 183.7 45.2C189.9 36.8 195.0 29.7 195.0 29.5C195.0 28.6 188.5 29.0 180.5 30.4C140.0 37.5 99.2 58.5 69.1 87.5C46.4 109.4 41.9 124.9 56.4 131.9C64.6 135.9 74.6 133.9 86.5 126.0C89.8 123.8 92.9 122.0 93.4 122.0C94.7 122.0 93.3 131.5 91.4 135.7C84.5 150.1 62.1 156.9 43.8 150.0C37.1 147.5 28.8 140.4 25.9 134.8C20.4 124.1 23.8 110.0 36.1 91.8C57.3 60.6 113.7 25.8 163.7 13.1C186.4 7.3 216.0 4.4 221.7 7.4C228.7 11.0 229.8 16.8 224.9 24.6C223.2 27.3 214.0 39.9 204.5 52.5C186.2 76.8 134.6 150.0 135.7 150.0C136.1 150.0 140.8 148.2 146.1 146.0C151.5 143.8 156.9 142.0 158.1 142.0C160.0 142.0 160.2 142.4 159.6 145.2C159.3 146.9 156.5 151.7 153.4 155.7C146.9 164.4 141.6 168.1 125.0 175.9L113.5 181.2L103.3 196.3C72.3 242.2 50.7 263.0 29.1 267.6C21.8 269.1 13.6 269.3 10.4 268.0ZM993.4 268.0C990.0 266.6 986.1 261.2 984.4 255.3C979.8 239.5 988.2 223.8 1011.0 205.5C1026.8 192.8 1039.3 185.1 1063.5 172.8L1083.6 162.6L1098.1 141.6C1115.3 116.4 1150.9 66.5 1166.7 45.2C1172.9 36.8 1178.0 29.7 1178.0 29.5C1178.0 28.6 1171.5 29.0 1163.5 30.4C1123.0 37.5 1082.2 58.5 1052.1 87.5C1029.4 109.4 1024.9 124.9 1039.4 131.9C1047.6 135.9 1057.6 133.9 1069.5 126.0C1072.8 123.8 1075.9 122.0 1076.4 122.0C1077.7 122.0 1076.3 131.5 1074.4 135.7C1067.5 150.1 1045.1 156.9 1026.8 150.0C1020.1 147.5 1011.8 140.4 1008.9 134.8C1003.4 124.1 1006.8 110.0 1019.1 91.8C1040.3 60.6 1096.7 25.8 1146.7 13.1C1169.4 7.3 1199.0 4.4 1204.7 7.4C1211.7 11.0 1212.8 16.8 1207.9 24.6C1206.2 27.3 1197.0 39.9 1187.5 52.5C1169.2 76.8 1117.6 150.0 1118.7 150.0C1119.1 150.0 1123.8 148.2 1129.1 146.0C1134.5 143.8 1139.9 142.0 1141.1 142.0C1143.0 142.0 1143.2 142.4 1142.6 145.2C1142.3 146.9 1139.5 151.7 1136.4 155.7C1129.9 164.4 1124.6 168.1 1108.0 175.9L1096.5 181.2L1086.3 196.3C1055.3 242.2 1033.7 263.0 1012.1 267.6C1004.8 269.1 996.6 269.3 993.4 268.0ZM29.3 245.9C42.6 239.2 54.9 227.1 74.0 202.0L80.4 193.6L76.5 196.0C69.1 200.4 48.6 214.3 42.5 218.8C27.3 230.3 18.0 240.2 18.0 245.1C18.0 248.5 23.3 248.9 29.3 245.9ZM1012.3 245.9C1025.6 239.2 1037.9 227.1 1057.0 202.0L1063.4 193.6L1059.5 196.0C1052.1 200.4 1031.6 214.3 1025.5 218.8C1010.3 230.3 1001.0 240.2 1001.0 245.1C1001.0 248.5 1006.3 248.9 1012.3 245.9ZM329.1 195.9C323.8 194.3 321.3 192.2 318.9 187.3C316.3 181.9 316.7 174.2 320.0 164.3C322.3 157.6 335.3 131.1 342.2 119.0L346.4 111.5L340.6 116.5C330.4 125.1 293.7 165.3 277.9 185.1C271.4 193.2 267.9 196.0 264.3 196.0C261.7 196.0 256.0 193.7 256.0 192.7C256.0 188.4 284.0 129.8 302.2 96.2C329.4 45.5 350.3 10.6 356.5 5.1C360.0 2.1 368.5 -0.5 373.0 0.1C375.1 0.4 375.5 1.1 375.8 4.5C376.0 8.1 374.8 10.5 362.7 29.5C338.5 67.5 316.9 104.2 306.5 124.9L302.8 132.3L315.7 119.3C328.5 106.2 341.9 95.3 349.5 91.9C356.5 88.7 368.8 89.9 371.0 94.0C373.5 98.6 372.1 102.7 358.9 129.2C339.4 168.2 337.2 173.8 340.2 176.8C343.7 180.3 353.3 175.6 363.6 165.3C369.4 159.5 373.2 153.8 389.0 127.0C406.0 98.2 408.0 95.3 412.2 92.7C415.8 90.5 418.1 89.8 423.1 89.7C429.4 89.5 429.5 89.5 429.8 92.3C430.2 95.7 426.7 103.6 420.4 113.2L415.7 120.5L424.4 112.2C441.1 96.4 452.4 90.1 463.9 90.0C469.8 90.0 470.4 90.2 473.6 93.4C475.9 95.7 477.0 97.7 477.0 99.7C477.0 104.3 471.1 115.3 458.9 133.5C447.4 150.7 439.6 164.8 438.5 170.7C437.6 175.0 440.6 178.0 445.8 178.0C451.2 178.0 458.0 173.6 470.1 162.6C475.8 157.3 481.2 153.0 482.1 153.0C484.2 153.0 485.0 155.0 485.0 160.1C485.0 162.3 485.4 164.8 485.9 165.8C486.5 166.7 487.1 168.7 487.5 170.2C488.4 174.6 491.7 177.0 497.0 177.0C508.0 177.0 523.7 172.5 529.5 167.7C536.3 162.1 534.2 160.6 512.5 155.1C486.6 148.5 481.5 144.9 481.5 133.2C481.5 125.0 484.5 119.3 493.0 111.0C514.0 90.5 563.1 76.9 574.0 88.5C576.0 90.6 576.2 91.7 575.8 97.6C575.4 104.1 575.3 104.4 570.7 108.6C562.8 115.7 552.3 118.1 548.1 113.6C545.9 111.3 545.9 111.1 547.4 108.1C549.0 105.0 549.0 105.0 546.4 105.0C542.5 105.0 533.1 107.6 526.4 110.6C514.0 116.1 498.2 128.6 500.7 131.1C501.4 131.8 508.5 133.7 516.7 135.6C541.6 141.1 549.9 145.1 553.9 153.3C556.6 158.9 556.5 162.3 553.6 168.5C545.4 186.3 507.3 201.3 485.0 195.6C478.1 193.8 474.8 191.4 472.1 186.3L470.5 183.0L463.7 187.9C454.7 194.5 449.2 196.5 440.4 196.5C434.4 196.5 432.7 196.1 429.3 193.8C423.2 189.8 419.8 184.8 419.2 179.2C418.2 168.4 425.5 150.9 440.9 127.6C445.9 120.0 450.0 113.4 450.0 112.9C450.0 106.0 409.3 145.2 387.3 173.3C382.4 179.4 376.7 186.4 374.4 188.9L370.3 193.3L365.1 192.0C360.2 190.8 359.5 190.9 353.8 193.5C347.1 196.5 335.0 197.7 329.1 195.9ZM725.4 195.6C721.0 193.6 715.5 188.5 713.6 184.6C708.8 174.5 715.6 155.5 733.9 127.6C738.9 120.0 743.0 113.4 743.0 112.9C743.0 106.0 702.4 145.1 680.3 173.2C675.4 179.4 669.7 186.4 667.6 188.8C663.9 192.8 663.3 193.1 660.1 192.5C658.2 192.1 654.9 191.2 652.8 190.3C645.7 187.4 645.5 187.8 686.3 119.5C699.1 98.1 701.1 95.2 705.2 92.7C708.8 90.5 711.1 89.8 716.1 89.7C722.4 89.5 722.5 89.5 722.8 92.3C723.2 95.7 719.7 103.6 713.4 113.2L708.7 120.5L717.4 112.2C734.1 96.4 745.4 90.1 756.9 90.0C762.8 90.0 763.4 90.2 766.6 93.4C768.9 95.7 770.0 97.7 770.0 99.7C770.0 104.3 764.1 115.3 751.9 133.5C740.4 150.7 732.6 164.8 731.5 170.7C730.6 175.0 733.6 178.0 738.8 178.0C744.2 178.0 751.0 173.6 763.1 162.6C773.4 153.1 776.2 151.5 777.4 154.6C778.6 157.8 778.0 168.2 776.4 170.8C774.7 173.8 762.0 184.4 753.4 190.2C744.1 196.5 732.6 198.7 725.4 195.6ZM1312.1 195.9C1306.8 194.3 1304.3 192.2 1301.9 187.3C1299.3 181.9 1299.7 174.2 1303.0 164.3C1305.3 157.6 1318.3 131.1 1325.2 119.0L1329.4 111.5L1323.6 116.5C1313.4 125.1 1276.7 165.3 1260.9 185.1C1254.4 193.2 1250.9 196.0 1247.3 196.0C1244.7 196.0 1239.0 193.7 1239.0 192.7C1239.0 188.4 1267.0 129.8 1285.2 96.2C1312.4 45.5 1333.3 10.6 1339.5 5.1C1343.0 2.1 1351.5 -0.5 1356.0 0.1C1358.1 0.4 1358.5 1.1 1358.8 4.5C1359.0 8.1 1357.8 10.5 1345.7 29.5C1321.5 67.5 1299.9 104.2 1289.5 124.9L1285.8 132.3L1298.7 119.3C1311.5 106.2 1324.9 95.3 1332.5 91.9C1339.5 88.7 1351.8 89.9 1354.0 94.0C1356.5 98.6 1355.1 102.7 1341.9 129.2C1322.4 168.2 1320.2 173.8 1323.2 176.8C1326.7 180.3 1335.7 175.9 1346.9 165.3C1353.4 159.2 1355.9 155.5 1372.9 127.0C1389.9 98.3 1392.0 95.3 1396.2 92.7C1399.8 90.5 1402.1 89.8 1407.1 89.7C1413.4 89.5 1413.5 89.5 1413.8 92.3C1414.2 95.7 1410.7 103.6 1404.4 113.2L1399.7 120.5L1408.4 112.2C1425.1 96.4 1436.4 90.1 1447.9 90.0C1453.8 90.0 1454.4 90.2 1457.6 93.4C1459.9 95.7 1461.0 97.7 1461.0 99.7C1461.0 104.3 1455.1 115.3 1442.9 133.5C1431.4 150.7 1423.6 164.8 1422.5 170.7C1421.6 175.0 1424.6 178.0 1429.8 178.0C1435.2 178.0 1442.0 173.6 1454.1 162.6C1459.8 157.3 1465.3 153.0 1466.2 153.0C1468.2 153.0 1468.6 154.4 1469.5 164.0C1470.5 174.2 1472.7 176.9 1480.1 177.0C1490.9 177.0 1506.7 172.5 1512.5 167.7C1519.3 162.1 1517.2 160.6 1495.5 155.1C1469.6 148.5 1464.5 144.9 1464.5 133.2C1464.5 125.0 1467.5 119.3 1476.0 111.0C1497.0 90.5 1546.1 76.9 1557.0 88.5C1559.0 90.6 1559.2 91.7 1558.8 97.6C1558.4 104.1 1558.3 104.4 1553.7 108.6C1545.8 115.7 1535.3 118.1 1531.1 113.6C1528.9 111.3 1528.9 111.1 1530.4 108.1C1532.0 105.0 1532.0 105.0 1529.4 105.0C1525.5 105.0 1516.1 107.6 1509.4 110.6C1497.0 116.1 1481.2 128.6 1483.7 131.1C1484.4 131.8 1491.5 133.7 1499.7 135.6C1524.6 141.1 1532.9 145.1 1536.9 153.3C1539.6 158.9 1539.5 162.3 1536.6 168.5C1528.4 186.3 1490.4 201.2 1468.0 195.6C1461.6 194.0 1457.6 191.0 1454.4 185.5C1453.5 183.8 1453.0 183.9 1447.9 187.8C1439.2 194.4 1433.7 196.4 1424.9 196.5C1418.3 196.5 1416.8 196.1 1413.3 193.8C1407.2 189.8 1403.8 184.8 1403.2 179.2C1402.2 168.4 1409.5 150.9 1424.9 127.6C1429.9 120.0 1434.0 113.4 1434.0 112.9C1434.0 106.0 1393.3 145.2 1371.3 173.3C1366.4 179.4 1360.6 186.4 1358.4 188.9L1354.3 193.4L1348.9 191.9C1343.6 190.4 1343.4 190.5 1337.2 193.3C1330.3 196.5 1318.2 197.8 1312.1 195.9ZM1708.4 195.6C1704.0 193.6 1698.5 188.5 1696.6 184.6C1691.8 174.5 1698.6 155.5 1716.9 127.6C1721.9 120.0 1726.0 113.4 1726.0 112.9C1726.0 106.0 1685.4 145.1 1663.3 173.2C1658.4 179.4 1652.7 186.4 1650.6 188.8C1646.9 192.8 1646.3 193.1 1643.1 192.5C1641.2 192.1 1637.9 191.2 1635.8 190.3C1628.7 187.4 1628.5 187.8 1669.3 119.5C1682.1 98.1 1684.1 95.2 1688.2 92.7C1691.8 90.5 1694.1 89.8 1699.1 89.7C1705.4 89.5 1705.5 89.5 1705.8 92.3C1706.2 95.7 1702.7 103.6 1696.4 113.2L1691.7 120.5L1700.4 112.2C1717.1 96.4 1728.4 90.1 1739.9 90.0C1745.8 90.0 1746.4 90.2 1749.6 93.4C1751.9 95.7 1753.0 97.7 1753.0 99.7C1753.0 104.3 1747.1 115.3 1734.9 133.5C1723.4 150.7 1715.6 164.8 1714.5 170.7C1713.6 175.0 1716.6 178.0 1721.8 178.0C1727.2 178.0 1734.0 173.6 1746.1 162.6C1756.4 153.1 1759.2 151.5 1760.4 154.6C1761.6 157.8 1761.0 168.2 1759.4 170.8C1757.7 173.8 1745.0 184.4 1736.4 190.2C1727.1 196.5 1715.6 198.7 1708.4 195.6ZM182.5 194.1C171.1 189.0 167.5 177.1 172.0 159.4C176.3 142.5 185.8 127.1 200.5 113.2C222.3 92.5 245.7 84.3 254.5 94.0C255.7 95.3 257.6 96.0 259.9 96.0C267.3 96.0 273.0 102.3 273.0 110.3C273.0 126.6 250.1 161.6 227.6 179.6C210.1 193.6 193.2 199.0 182.5 194.1ZM576.5 194.1C565.1 189.0 561.5 177.1 566.0 159.4C570.3 142.5 579.8 127.1 594.5 113.2C616.3 92.5 639.7 84.3 648.5 94.0C649.7 95.3 651.6 96.0 653.9 96.0C661.3 96.0 667.0 102.3 667.0 110.3C667.0 126.6 644.1 161.6 621.6 179.6C604.1 193.6 587.2 199.0 576.5 194.1ZM851.2 195.2C850.5 194.7 849.7 192.8 849.4 190.8C848.9 187.9 849.8 185.2 854.4 175.5C857.5 169.0 860.0 163.4 860.0 163.0C860.0 162.6 858.2 161.7 855.9 161.0C850.2 159.1 843.5 152.8 841.4 147.5C839.2 141.7 839.9 132.8 843.1 126.3C846.2 120.0 852.7 113.1 860.5 108.0L866.9 103.9L863.0 100.4C858.3 96.1 856.6 91.4 857.3 84.9C858.1 78.8 860.1 74.9 865.9 68.7C875.4 58.5 890.3 50.6 908.4 46.0L919.4 43.2L927.6 27.4C932.2 18.6 937.1 10.5 938.6 9.4C941.6 6.9 951.8 3.6 954.6 4.2C958.3 4.9 957.2 8.8 948.1 25.7C940.9 39.2 939.5 42.6 940.8 42.8C949.0 44.2 954.0 48.5 954.0 54.1C954.0 57.9 950.1 64.7 946.3 67.6C941.6 71.2 931.1 75.0 926.0 75.0C922.4 75.0 921.9 75.4 920.0 79.0C917.4 84.1 917.5 84.4 920.9 85.7C924.5 87.0 927.2 90.9 927.4 95.1C927.5 97.8 926.8 98.9 923.2 101.6C919.3 104.7 917.1 105.5 908.7 107.4C906.4 108.0 905.0 110.1 898.5 123.0C894.4 131.3 891.2 138.0 891.4 138.0C892.6 138.0 906.5 131.6 912.5 128.3C924.5 121.6 928.3 118.9 933.1 113.8C937.1 109.5 938.1 109.0 939.8 109.9C942.9 111.5 945.3 117.7 944.7 122.3C942.7 137.4 913.2 157.3 886.0 162.0L879.5 163.1L872.6 178.6C868.8 187.1 864.9 194.5 863.9 195.1C861.7 196.2 853.0 196.3 851.2 195.2ZM1165.5 194.1C1154.1 189.0 1150.5 177.1 1155.0 159.4C1159.3 142.5 1168.8 127.1 1183.5 113.2C1205.3 92.5 1228.7 84.3 1237.5 94.0C1238.7 95.3 1240.6 96.0 1242.9 96.0C1250.3 96.0 1256.0 102.3 1256.0 110.3C1256.0 126.6 1233.1 161.6 1210.6 179.6C1193.1 193.6 1176.2 199.0 1165.5 194.1ZM1560.5 194.1C1549.1 189.0 1545.5 177.1 1550.0 159.4C1554.3 142.5 1563.8 127.1 1578.5 113.2C1600.3 92.5 1623.7 84.3 1632.5 94.0C1633.7 95.3 1635.6 96.0 1637.9 96.0C1645.3 96.0 1651.0 102.3 1651.0 110.3C1651.0 126.6 1628.1 161.6 1605.6 179.6C1588.1 193.6 1571.2 199.0 1560.5 194.1ZM203.6 174.0C218.2 166.7 237.3 145.3 246.6 125.6C250.6 117.2 250.7 113.7 247.1 113.2C245.6 112.9 244.4 111.8 243.7 109.9C243.1 108.3 242.2 107.0 241.8 107.0C240.1 107.0 229.1 113.0 224.4 116.5C207.6 129.1 192.6 150.4 189.8 165.7C188.8 171.0 188.9 172.2 190.4 174.4C192.6 177.9 196.2 177.8 203.6 174.0ZM597.6 174.0C612.2 166.7 631.3 145.3 640.6 125.6C644.6 117.2 644.7 113.7 641.1 113.2C639.6 112.9 638.4 111.8 637.7 109.9C637.1 108.3 636.2 107.0 635.8 107.0C634.1 107.0 623.1 113.0 618.4 116.5C601.6 129.1 586.6 150.4 583.8 165.7C582.8 171.0 582.9 172.2 584.4 174.4C586.6 177.9 590.2 177.8 597.6 174.0ZM1186.6 174.0C1201.2 166.7 1220.3 145.3 1229.6 125.6C1233.6 117.2 1233.7 113.7 1230.1 113.2C1228.6 112.9 1227.4 111.8 1226.7 109.9C1226.1 108.3 1225.2 107.0 1224.8 107.0C1223.1 107.0 1212.1 113.0 1207.4 116.5C1190.6 129.1 1175.6 150.4 1172.8 165.7C1171.8 171.0 1171.9 172.2 1173.4 174.4C1175.6 177.9 1179.2 177.8 1186.6 174.0ZM1581.6 174.0C1596.2 166.7 1615.3 145.3 1624.6 125.6C1628.6 117.2 1628.7 113.7 1625.1 113.2C1623.6 112.9 1622.4 111.8 1621.7 109.9C1621.1 108.3 1620.2 107.0 1619.8 107.0C1618.1 107.0 1607.1 113.0 1602.4 116.5C1585.6 129.1 1570.6 150.4 1567.8 165.7C1566.8 171.0 1566.9 172.2 1568.4 174.4C1570.6 177.9 1574.2 177.8 1581.6 174.0ZM876.3 129.8C879.5 123.2 881.9 117.5 881.7 117.4C881.0 116.6 870.9 124.3 868.5 127.4C865.4 131.4 864.3 136.9 865.9 139.9C868.4 144.5 870.4 142.5 876.3 129.8ZM892.8 88.4L897.0 87.9L902.0 77.9C904.8 72.5 906.8 68.0 906.5 68.0C905.4 68.0 893.3 74.4 889.0 77.3C883.8 80.8 878.0 86.0 878.0 87.2C878.0 87.7 878.9 88.4 880.1 88.8C882.1 89.6 883.5 89.5 892.8 88.4Z"/></svg>